<svg aria-hidden="true" style="position: absolute; width: 0; height: 0; overflow: hidden;" version="1.1" xmlns="http://www.w3.org/2000/svg" xmlns:xlink="http://www.w3.org/1999/xlink">
<defs>
<symbol id="icon-svgexport-1" viewBox="0 0 89 32">
<path fill="#fff" style="fill: var(--color1, #fff)" d="M87.943 28.512c-0.35 0-35.879-2.138-87.271 2.036-0.201 0.015-0.376 0.111-0.496 0.255l-0.001 0.001c-0.116 0.129-0.187 0.301-0.187 0.489 0 0.405 0.328 0.733 0.733 0.733 0.003 0 0.005 0 0.008-0h0.085c51.364-4.183 86.717-2.069 87.079-2.036 0.009 0 0.019 0.001 0.029 0.001 0.403 0 0.729-0.326 0.729-0.729 0-0.191-0.073-0.364-0.193-0.494l0 0c-0.126-0.149-0.309-0.246-0.516-0.257l-0.002-0zM53.633 20.647v0.020zM68.983 7.019h5.323v18.292h-5.323zM63.839 25.31l4.236-18.292h-5.254l-1.275 6.83-0.578 3.478h-0.171l-0.578-3.478-1.275-6.814h-5.572l4.236 18.275h6.232zM71.684 5.614c1.539-0.014 2.782-1.265 2.782-2.806 0-0.009-0-0.017-0-0.026v0.001c-0.005-1.537-1.252-2.782-2.79-2.782-0.011 0-0.023 0-0.034 0l0.002-0h-0.024c-1.536 0.018-2.774 1.268-2.774 2.806 0 1.55 1.257 2.806 2.806 2.806 0.011 0 0.023-0 0.034-0l-0.002 0zM14.341 20.341h-7.523l7.262-13.978v-4.684h-13.4v5.067h7.103l-7.49 14.398v4.167h14.048v-4.969zM83.206 20.92c-1.629 0-2.175-0.11-2.305-2.366v-0.094h7.946c0.167-5.34 0-8.366-1.462-10.056-0.925-1.083-2.444-1.609-4.664-1.609s-3.918 0.574-5.116 1.902-1.849 2.9-1.849 7.437c0 3.026 0.253 6.069 2.036 7.82 0.973 0.937 2.745 1.519 4.639 1.519 0.1 0.002 0.219 0.003 0.337 0.003 2.186 0 4.289-0.356 6.254-1.013l-0.139 0.040-1.426-4.399c-1.259 0.467-2.713 0.762-4.228 0.814l-0.024 0.001zM80.872 14.745c0.098-2.721 0.436-3.108 1.825-3.108s1.535 0.591 1.568 3.112v0.090h-3.393zM36.343 14.749c0-1.629 1.104-2.476 3.258-2.501v-5.226c-1.906 0.077-3.218 0.529-3.796 1.312l-0.114 0.151-0.346-1.462-4.391 0.281v18.006h5.389zM46.077 11.927c1.051 0 1.373 0.293 1.438 1.303v0.094h-0.383c-5.861 0-7.739 1.544-7.739 6.35 0 4.073 1.588 5.832 5.254 5.832 2.415 0 3.36-0.635 4.020-1.324l0.098-0.102 0.049 0.13c0.269 0.701 0.815 1.165 2.558 1.165 1.189 0 1.947 0 2.26-0.053v-4.655c-0.868-0.020-0.912-0.31-0.912-1.116v-7.474c0-1.731-0.342-2.953-1.075-3.767-0.904-1.035-2.444-1.515-4.855-1.515-3.258 0-5.063 0.517-6.484 1.087l1.804 4.745c1.18-0.432 2.541-0.688 3.961-0.7l0.006-0zM47.523 19.176c0 1.45-0.358 1.89-1.666 1.89s-1.377-0.729-1.377-1.922c0-1.829 0.635-2.338 2.953-2.37h0.090zM19.64 25.477c1.849 0 3.723-0.098 4.562-1.283l0.118-0.163 0.281 1.373 4.378-0.281v-23.444h-5.295v6.17l-0.147-0.151c-0.815-0.815-2.012-0.872-3.641-0.872-0.070-0.004-0.153-0.006-0.236-0.006-1.155 0-2.212 0.418-3.029 1.111l0.007-0.006c-1.629 1.495-1.739 4.317-1.739 8.146 0 3.666 0.114 6.61 1.584 8.146 0.76 0.779 1.821 1.262 2.994 1.262 0.057 0 0.114-0.001 0.171-0.003l-0.008 0zM21.859 11.927c1.629 0 1.825 0.88 1.825 4.334 0 3.58-0.195 4.48-1.825 4.48-1.434 0-1.568-0.815-1.568-4.48 0-3.808 0.191-4.334 1.568-4.334z"></path>
</symbol>
<symbol id="icon-svgexport-16" viewBox="0 0 33 32">
<path fill="#7a87b8" style="fill: var(--color2, #7a87b8)" d="M16.516 0c-0.071-0.001-0.155-0.002-0.24-0.002-8.893 0-16.121 7.131-16.276 15.987l-0 0.015c0.156 8.871 7.383 16.002 16.276 16.002 0.084 0 0.168-0.001 0.252-0.002l-0.013 0c0.071 0.001 0.155 0.002 0.24 0.002 8.893 0 16.121-7.131 16.276-15.987l0-0.015v-16zM26.839 19.025h-7.226v6.999h-6.194v-6.999h-7.226v-6.018h7.226v-6.999h6.194v6.999h7.226z"></path>
</symbol>
<symbol id="icon-svgexport-17" viewBox="0 0 44 32">
<path fill="#606d9f" style="fill: var(--color3, #606d9f)" d="M34.593 16.529c-0.85 0-1.25-0.45-1.25-1.5v-9.629c0-3.75-2.5-5.4-5.243-5.4-1.436 0-2.943 0.45-3.943 1.443 0.25 0.264 0.464 0.557 0.636 0.879 0.443-0.493 1.050-0.829 1.764-0.829 1.943 0.007 2.586 1.607 2.586 3.65v9.893c0 1.4-0.55 1.5-1.3 1.5h-0.55v0.85h7.793v-0.85h-0.493v-0.007zM24.050 15.036v-10.079c0-1.321-0.321-2.293-0.807-3-1.050-1.321-2.586-1.957-4.286-1.957-1.75 0-3 0.5-4.15 1.85v-1.5h-6.293v0.8h0.65c0.7 0 1.45 0.050 1.45 1.45v12.436c0 1.4-0.7 1.5-1.4 1.5h-0.55v0.85h7.743v-0.85h-0.35c-0.75 0-1.25-0.45-1.25-1.5v-10.936c0.15-1.35 1.15-2.6 2.5-2.6 2.15 0 2.55 1.7 2.55 3.65v9.886c0 1.4-0.65 1.5-1.4 1.5h-0.55v0.85h7.893v-0.85h-0.5c-0.8-0.007-1.25-0.457-1.25-1.5zM0 25.050v-4.279h0.793l2.257 3.114v-3.114h0.764v4.279h-0.793l-2.257-3.186v3.179l-0.764 0.007zM7.636 20.779v0.679h-2.136v1.079h2.043v0.707h-2.057v1.121h2.193v0.686h-2.964v-4.279l2.921 0.007zM8.071 20.779h0.807l0.457 3.071 1.114-3.071h0.757l1.043 2.95 0.486-2.95h0.779l-0.807 4.279h-0.757l-1.179-3.357-1.264 3.357h-0.743l-0.693-4.279zM13.993 24.871v-0.714c0.464 0.164 0.957 0.25 1.457 0.243 0.657 0 0.986-0.221 0.986-0.657 0-0.321-0.2-0.479-0.607-0.479h-0.671c-0.879 0-1.314-0.4-1.314-1.2 0-0.879 0.621-1.314 1.871-1.314 0.464-0.007 0.921 0.064 1.357 0.207v0.714c-0.436-0.157-0.893-0.243-1.357-0.236-0.721 0-1.079 0.207-1.079 0.629 0 0.321 0.171 0.479 0.521 0.479h0.671c0.929 0 1.4 0.4 1.4 1.2 0 0.9-0.593 1.343-1.779 1.343-0.493 0.007-0.986-0.064-1.457-0.214zM19.093 21.957c0-0.786 0.507-1.179 1.529-1.179 0.364 0 0.729 0.050 1.079 0.15v0.629c-0.336-0.1-0.686-0.15-1.036-0.15-0.514 0-0.771 0.179-0.771 0.536 0 0.421 0.207 0.629 0.614 0.629h1.007v-0.429h0.429l0.307 0.429h0.543v0.629h-0.486v0.386c0 0.986-0.55 1.471-1.643 1.471-1.050 0-1.571-0.414-1.571-1.25 0-0.45 0.186-0.764 0.55-0.936-0.371-0.164-0.55-0.471-0.55-0.914zM20.5 23.2c-0.414 0-0.621 0.2-0.621 0.6 0 0.414 0.257 0.629 0.779 0.629 0.564 0 0.843-0.279 0.843-0.843v-0.386h-1zM24.579 25.050v-4.279h0.821l1.457 3.243 1.421-3.243h0.793v4.279h-0.736v-2.979l-1.157 2.979h-0.679l-1.186-2.979v2.979h-0.736zM32.893 20.779v0.679h-2.143v1.079h2.036v0.707h-2.050v1.121h2.193v0.686h-2.971v-4.279l2.936 0.007zM33.664 25.050v-4.279h1.679c1.414 0 2.121 0.671 2.121 2.021 0 1.5-0.707 2.257-2.121 2.257h-1.679zM35.343 24.364c0.886 0 1.329-0.521 1.329-1.564 0-0.893-0.443-1.336-1.329-1.336h-0.879v2.9h0.879zM38.929 20.779v4.279h-0.793v-4.279h0.793zM40.271 25.050h-0.814l1.814-4.279h0.85l1.857 4.279h-0.857l-0.486-1.164h-1.421l0.271-0.686h0.864l-0.671-1.607-1.407 3.457zM10.879 31.064v-3.5h0.45v1.207c0.221-0.186 0.507-0.286 0.8-0.279 0.643 0 0.964 0.321 0.964 0.957v1.614h-0.45v-1.621c0-0.379-0.193-0.571-0.571-0.571-0.257 0-0.507 0.107-0.743 0.329v1.871l-0.45-0.007zM14.607 29.779c0-0.857 0.407-1.286 1.221-1.286s1.221 0.429 1.221 1.286-0.407 1.286-1.221 1.286-1.221-0.429-1.221-1.286zM15.829 30.7c0.514 0 0.771-0.307 0.771-0.929 0-0.607-0.257-0.907-0.771-0.907s-0.771 0.3-0.771 0.907c0 0.621 0.257 0.929 0.771 0.929zM19.043 27.564v3.5h-0.45v-3.5h0.45zM22.886 30.914c-0.371 0.114-0.764 0.164-1.15 0.157-0.764 0-1.15-0.443-1.15-1.336 0-0.821 0.407-1.236 1.221-1.236 0.214 0 0.429 0.043 0.629 0.121v-1.050h0.45v3.343zM22.429 29.021c-0.193-0.093-0.407-0.136-0.629-0.136-0.514 0-0.779 0.271-0.779 0.821 0 0.65 0.257 0.979 0.779 0.979 0.214 0 0.421-0.029 0.629-0.093v-1.571zM25.021 27.564v0.429h-0.45v-0.429h0.45zM25.021 28.493v2.571h-0.45v-2.564l0.45-0.007zM26.707 31.064v-2.564h0.307l0.079 0.329c0.243-0.207 0.55-0.329 0.864-0.329 0.643 0 0.964 0.321 0.964 0.957v1.614h-0.45v-1.621c0-0.379-0.193-0.571-0.571-0.571-0.257 0-0.507 0.107-0.743 0.329v1.864l-0.45-0.007zM32.729 31.064c0 0.621-0.393 0.929-1.179 0.929-0.286 0.007-0.571-0.036-0.843-0.121v-0.364c0.271 0.086 0.557 0.129 0.85 0.121 0.486 0 0.721-0.186 0.721-0.564v-0.121c-0.2 0.086-0.407 0.121-0.621 0.121-0.814 0-1.221-0.436-1.221-1.3 0-0.85 0.429-1.271 1.286-1.271 0.336 0 0.679 0.036 1.007 0.107v2.464zM32.271 28.936c-0.186-0.043-0.379-0.064-0.571-0.057-0.55 0-0.821 0.293-0.821 0.886 0 0.607 0.257 0.914 0.779 0.914 0.214 0.007 0.429-0.043 0.621-0.136v-1.607h-0.007z"></path>
</symbol>
</defs>
</svg>
